<?xml version="1.0" ?><svg enable-background="new 0 0 32 32" id="Layer_1" version="1.1" viewBox="0 0 32 32" xml:space="preserve" xmlns="http://www.w3.org/2000/svg" xmlns:xlink="http://www.w3.org/1999/xlink"><g id="Layer_4_copy_4"><g><path d="M16,32c8.837,0,16-7.163,16-16S24.837,0,16,0S0,7.163,0,16S7.163,32,16,32z M16,0.75    c8.409,0,15.25,6.841,15.25,15.25S24.409,31.25,16,31.25S0.75,24.409,0.75,16S7.591,0.75,16,0.75z" fill="#414753"/><path d="M16,29.57c7.495,0,13.57-6.076,13.57-13.57c0-7.495-6.076-13.57-13.57-13.57    C8.505,2.43,2.43,8.505,2.43,16S8.505,29.57,16,29.57z M16,3.18c7.069,0,12.82,5.751,12.82,12.82S23.069,28.82,16,28.82    S3.18,23.069,3.18,16S8.931,3.18,16,3.18z" fill="#414753"/><path d="M9.384,18.62c0,0,0.524,0.524,1.048,1.572c0,0,0.8,2.189,3.668,1.572c0.006,0.853,0,2.096,0,2.096h2.096    h2.093v-3.668c0-0.414-0.229-1.316-0.524-1.572c2.289-0.258,4.192-1.572,4.192-4.192s-0.524-3.144-1.048-3.668    c0.106-0.258,0.544-1.213-0.016-2.62c0,0-1.032,0-2.08,1.572c-0.519-0.519-2.096-0.524-2.619-0.524    c-0.524,0-2.101,0.005-2.62,0.524C12.526,8.14,11.496,8.14,11.496,8.14c-0.561,1.407-0.122,2.362-0.016,2.62    c-0.524,0.524-1.05,1.048-1.05,3.668s1.905,3.934,4.194,4.192c-0.294,0.256-0.524,1.048-0.524,1.572    c-0.588,0.262-2.224,0.513-3.144-1.048c0,0-0.524-1.048-1.572-1.048C9.384,18.096,8.336,17.997,9.384,18.62z" fill="#414753"/></g></g></svg>