<?xml version="1.0" ?><svg enable-background="new 0 0 32 32" id="Layer_1" version="1.1" viewBox="0 0 32 32" xml:space="preserve" xmlns="http://www.w3.org/2000/svg" xmlns:xlink="http://www.w3.org/1999/xlink"><g id="Layer_4_copy_4"><g><path d="M16,32c8.837,0,16-7.163,16-16S24.837,0,16,0S0,7.163,0,16S7.163,32,16,32z M16,0.75    c8.409,0,15.25,6.841,15.25,15.25S24.409,31.25,16,31.25S0.75,24.409,0.75,16S7.591,0.75,16,0.75z" fill="#414753"/><path d="M16,29.57c7.495,0,13.57-6.076,13.57-13.57c0-7.495-6.076-13.57-13.57-13.57S2.43,8.505,2.43,16    S8.505,29.57,16,29.57z M16,3.18c7.069,0,12.82,5.751,12.82,12.82S23.069,28.82,16,28.82S3.18,23.069,3.18,16S8.931,3.18,16,3.18z    " fill="#414753"/><path d="M16.814,21.474v-4.88c0-0.26,0.019-0.521,0.096-0.708c0.21-0.522,0.687-1.062,1.489-1.062    c1.051,0,1.471,0.801,1.471,1.975v4.675h2.904l0,0v-5.01c0-2.684-1.433-3.933-3.343-3.933c-1.542,0-2.232,0.848-2.617,1.443    v-1.238H13.91c0.039,0.82,0,8.737,0,8.737L16.814,21.474L16.814,21.474z" fill="#414753"/><path d="M10.831,11.545h0.018c1.012,0,1.643-0.672,1.643-1.51c-0.019-0.857-0.631-1.509-1.624-1.509    s-1.643,0.652-1.643,1.509C9.226,10.873,9.856,11.545,10.831,11.545z" fill="#414753"/><rect fill="#414753" height="8.737" width="2.904" x="9.398" y="12.737"/></g></g></svg>